<svg xmlns="http://www.w3.org/2000/svg" xmlns:xlink="http://www.w3.org/1999/xlink" fill="none" version="1.1" width="16"
  height="16" viewBox="0 0 16 16">
  <defs>
    <clipPath id="master_svg0_934_076188">
      <rect x="0" y="0" width="16" height="16" rx="0" />
    </clipPath>
  </defs>
  <g clip-path="url(#master_svg0_934_076188)">
    <g>
      <path
        d="M3.019628625,2.31447475L13.686215625,12.98106875Q13.756515625,13.05136875,13.794615625,13.14326875Q13.832715625,13.23516875,13.832715625,13.33466875Q13.832715625,13.38386875,13.823115625,13.43216875Q13.813515625,13.48046875,13.794615625,13.52596875Q13.775815625,13.57146875,13.748415625,13.61246875Q13.721015625,13.65336875,13.686215625,13.68816875Q13.651415625,13.72296875,13.610515625,13.75036875Q13.569515625,13.77776875,13.524015625,13.79656875Q13.478515625,13.81546875,13.430215625,13.82506875Q13.381915625,13.83466875,13.332715625,13.83466875Q13.233215625,13.83466875,13.141315625,13.79656875Q13.049415625,13.75846875,12.979115625,13.68816875L2.312462625,3.02152175Q2.242135625,2.95119575,2.2040756249999998,2.85931075Q2.166015625,2.76742495,2.166015625,2.66796875Q2.166015625,2.61872305,2.175622625,2.57042365Q2.185230625,2.52212375,2.2040756249999998,2.47662675Q2.222921625,2.43112975,2.250280625,2.39018375Q2.277640625,2.34923775,2.312462625,2.31441575Q2.347284625,2.27959375,2.388230625,2.25223375Q2.429176625,2.22487475,2.474673625,2.2060287499999998Q2.520170625,2.18718375,2.568470525,2.17757575Q2.616769925,2.16796875,2.666015625,2.16796875Q2.765471825,2.16796875,2.857357625,2.2060287499999998Q2.949242625,2.24408875,3.019568625,2.31441575L3.019628625,2.31447475Z"
        fill-rule="evenodd" fill="currentColor" fill-opacity="1" style="mix-blend-mode:passthrough" />
    </g>
    <g>
      <path
        d="M13.686215625,3.02152175Q13.756515625,2.95119575,13.794615625,2.85931075Q13.832715625,2.76742485,13.832715625,2.66796875Q13.832715625,2.61872305,13.823115625,2.57042365Q13.813515625,2.52212375,13.794615625,2.47662675Q13.775815625,2.43112975,13.748415625,2.39018375Q13.721015625,2.34923775,13.686215625,2.31441575Q13.651415625,2.27959375,13.610515625,2.25223375Q13.569515625,2.22487475,13.524015625,2.2060287499999998Q13.478515625,2.18718375,13.430215625,2.17757575Q13.381915625,2.16796875,13.332715625,2.16796875Q13.233215625,2.16796875,13.141315625,2.2060287499999998Q13.049415625,2.24408875,12.979115625,2.31441475L12.978715625,2.31486675L2.312913625,12.98066875L2.312462625,12.98106875Q2.242135625,13.05136875,2.2040756249999998,13.14326875Q2.166015625,13.23516875,2.166015625,13.33466875Q2.166015625,13.38386875,2.175622625,13.43216875Q2.185230625,13.48046875,2.2040756249999998,13.52596875Q2.222921625,13.57146875,2.250280625,13.61246875Q2.277640625,13.65336875,2.312462625,13.68816875Q2.347284625,13.72296875,2.388230625,13.75036875Q2.429176625,13.77776875,2.474673625,13.79656875Q2.520170625,13.81546875,2.568470525,13.82506875Q2.616769925,13.83466875,2.666015625,13.83466875Q2.765471725,13.83466875,2.857357625,13.79656875Q2.949242625,13.75846875,3.019568625,13.68816875L13.686215625,3.02152175L13.686215625,3.02152175Z"
        fill-rule="evenodd" fill="currentColor" fill-opacity="1" style="mix-blend-mode:passthrough" />
    </g>
  </g>
</svg>