<svg xmlns="http://www.w3.org/2000/svg" xmlns:xlink="http://www.w3.org/1999/xlink" fill="none" version="1.1" width="14"
  height="14" viewBox="0 0 14 14">
  <defs>
    <clipPath id="master_svg0_843_28530">
      <rect x="0" y="0" width="14" height="14" rx="0" />
    </clipPath>
  </defs>
  <g clip-path="url(#master_svg0_843_28530)">
    <g>
      <path
        d="M11.72119390625,9.708984375L11.35888390625,9.708984375L10.85888390625,9.708984375L10.85888390625,10.708984375L11.35888390625,10.708984375L11.72119390625,10.708984375Q12.26808390625,10.708984375,12.65479390625,10.322274375Q13.04150390625,9.935564375,13.04150390625,9.388674375L13.04150390625,2.279296375Q13.04150390625,1.732406375,12.65479390625,1.345695375Q12.26808390625,0.958984375,11.72119390625,0.958984375L4.61181590625,0.958984375Q4.06492490625,0.958984375,3.67821490625,1.345695375Q3.29150390625,1.732405375,3.29150390625,2.279296375L3.29150390625,2.626954375L3.29150190625,3.126954375L4.29150590625,3.126954375L4.29150390625,2.626954375L4.29150390625,2.279297375Q4.29150390625,1.958984375,4.61181590625,1.958984375L11.72119390625,1.958984375Q12.04150390625,1.958984375,12.04150390625,2.279296375L12.04150390625,9.388674375Q12.04150390625,9.708984375,11.72119390625,9.708984375Z"
        fill-rule="evenodd" fill="currentColor" />
    </g>
    <g>
      <path
        d="M10.70849609375,11.720705625L10.70849609375,4.611327625Q10.70849609375,4.064437625,10.32178609375,3.677726625Q9.93507609375,3.291015625,9.38818609375,3.291015625L2.27880809375,3.291015625Q1.73191709375,3.291015625,1.34520709375,3.677726625Q0.95849609375,4.064436625,0.95849609375,4.611327625L0.95849609375,11.720705625Q0.95849609375,12.267595625,1.34520709375,12.654305625Q1.73191809375,13.041015625,2.27880809375,13.041015625L9.38818609375,13.041015625Q9.93507609375,13.041015625,10.32178609375,12.654305625Q10.70849609375,12.267595625,10.70849609375,11.720705625ZM9.38818609375,4.291015625Q9.70849609375,4.291015625,9.70849609375,4.611327625L9.70849609375,11.720705625Q9.70849609375,12.041015625,9.38818609375,12.041015625L2.27880809375,12.041015625Q1.95849609375,12.041015625,1.95849609375,11.720705625L1.95849609375,4.611328625Q1.95849609375,4.291015625,2.27880809375,4.291015625L9.38818609375,4.291015625Z"
        fill-rule="evenodd" fill="currentColor" />
    </g>
  </g>
</svg>