<svg xmlns="http://www.w3.org/2000/svg" xmlns:xlink="http://www.w3.org/1999/xlink" fill="none" version="1.1" width="16"
  height="15.997352600097656" viewBox="0 0 16 15.997352600097656">
  <g>
    <path
      d="M7.28896,0C3.26339,0,0,3.26285,0,7.28774C0,11.3126,3.26339,14.5755,7.28896,14.5755C9.02537,14.5755,10.62,13.9684,11.872,12.9549L14.6902,15.7727C14.9898,16.0722,15.4756,16.0722,15.7753,15.7727C16.0749,15.4731,16.0749,14.9874,15.7753,14.6878L12.9571,11.8701C13.9707,10.6182,14.5779,9.02387,14.5779,7.28774C14.5779,3.26285,11.3145,0,7.28896,0ZM1.53452,7.28774C1.53452,4.1102,4.11089,1.53426,7.28896,1.53426C10.467,1.53426,13.0434,4.1102,13.0434,7.28774C13.0434,10.4653,10.467,13.0412,7.28896,13.0412C4.11089,13.0412,1.53452,10.4653,1.53452,7.28774Z"
      fill-rule="evenodd" fill="currentColor" fill-opacity="1" />
  </g>
</svg>