<svg xmlns="http://www.w3.org/2000/svg" xmlns:xlink="http://www.w3.org/1999/xlink" fill="none" version="1.1" width="16"
  height="16" viewBox="0 0 16 16">
  <defs>
    <clipPath id="master_svg0_934_075467">
      <rect x="0" y="0" width="16" height="16" rx="0" />
    </clipPath>
  </defs>
  <g clip-path="url(#master_svg0_934_075467)">
    <g>
      <path
        d="M4.353613,5.6465060000000005L8,9.29289L11.64626,5.646634L11.64645,5.646447Q11.71677,5.57612,11.80866,5.53806Q11.90054,5.5,12,5.5Q12.04924,5.5,12.09754,5.509607Q12.14584,5.519215,12.19134,5.53806Q12.23684,5.556906,12.27778,5.584265Q12.31873,5.611625,12.35355,5.646447Q12.38837,5.681269,12.41573,5.722215Q12.44309,5.763161,12.46194,5.808658Q12.48078,5.854155,12.49039,5.9024549Q12.5,5.9507543,12.5,6Q12.5,6.0994561,12.46194,6.191342Q12.42388,6.283227,12.35355,6.353553L8.35355,10.35355Q8.31873,10.38837,8.27778,10.41573Q8.23684,10.44309,8.19134,10.46194Q8.14584,10.48078,8.09754,10.49039Q8.049240000000001,10.5,8,10.5Q7.95075,10.5,7.90245,10.49039Q7.854150000000001,10.48078,7.80866,10.46194Q7.76316,10.44309,7.7222100000000005,10.41573Q7.68127,10.38837,7.64645,10.35355L3.646506,6.353613L3.646447,6.353553Q3.57612,6.283227,3.5380599999999998,6.191342Q3.5,6.0994562,3.5,6Q3.5,5.9507543,3.509607,5.9024549Q3.519215,5.854155,3.5380599999999998,5.808658Q3.556906,5.763161,3.584265,5.722215Q3.611625,5.681269,3.646447,5.646447Q3.681269,5.611625,3.722215,5.584265Q3.763161,5.556906,3.808658,5.53806Q3.854155,5.519215,3.9024549,5.509607Q3.9507543,5.5,4,5.5Q4.0994562,5.5,4.191342,5.53806Q4.283227,5.57612,4.353553,5.646447L4.353613,5.6465060000000005Z"
        fill-rule="evenodd" fill="currentColor" fill-opacity="1" />
    </g>
  </g>
</svg>