<svg xmlns="http://www.w3.org/2000/svg" xmlns:xlink="http://www.w3.org/1999/xlink" fill="none" version="1.1" width="16"
  height="16" viewBox="0 0 16 16">
  <defs>
    <clipPath id="master_svg0_837_44489">
      <rect x="0" y="0" width="16" height="16" rx="0" />
    </clipPath>
  </defs>
  <g clip-path="url(#master_svg0_837_44489)">
    <g>
      <rect x="0" y="0" width="16" height="16" rx="0" fill="currentColor" fill-opacity="0.009999999776482582"
        style="mix-blend-mode:passthrough" />
    </g>
    <g>
      <path
        d="M1.3333740234375,1.166015625L14.6666740234375,1.166015625Q14.7159740234375,1.166015625,14.7642740234375,1.175622625Q14.8125740234375,1.185230625,14.8580740234375,1.204075625Q14.9035740234375,1.2229216250000001,14.9444740234375,1.250280625Q14.9854740234375,1.277640625,15.0202740234375,1.312462625Q15.0550740234375,1.347284625,15.0824740234375,1.388230625Q15.1097740234375,1.429176625,15.1286740234375,1.4746736249999999Q15.1474740234375,1.520170625,15.1570740234375,1.568470525Q15.1666740234375,1.616769925,15.1666740234375,1.666015625Q15.1666740234375,1.715261325,15.1570740234375,1.763560725Q15.1474740234375,1.811860625,15.1286740234375,1.8573576250000001Q15.1097740234375,1.902854625,15.0824740234375,1.943800625Q15.0550740234375,1.984746625,15.0202740234375,2.019568625Q14.9854740234375,2.054390625,14.9444740234375,2.081750625Q14.9035740234375,2.109109625,14.8580740234375,2.1279556250000002Q14.8125740234375,2.146800625,14.7642740234375,2.156408625Q14.7159740234375,2.166015625,14.6666740234375,2.166015625L1.3333740234375,2.166015625Q1.2841283234375,2.166015625,1.2358289234375,2.156408625Q1.1875290234375,2.146800625,1.1420320234374999,2.1279556250000002Q1.0965350234375,2.109109625,1.0555890234375,2.081750625Q1.0146430234375,2.054390625,0.9798210234375,2.019568625Q0.9449990234375,1.984746625,0.9176390234375,1.943800625Q0.8902800234375,1.902854625,0.8714340234375,1.8573576250000001Q0.8525890234375,1.811860625,0.8429810234374999,1.763560725Q0.8333740234375,1.715261325,0.8333740234375,1.666015625Q0.8333740234375,1.616769925,0.8429810234374999,1.568470525Q0.8525890234375,1.520170625,0.8714340234375,1.4746736249999999Q0.8902800234375,1.429176625,0.9176390234375,1.388230625Q0.9449990234375,1.347284625,0.9798210234375,1.312462625Q1.0146430234375,1.277640625,1.0555890234375,1.250280625Q1.0965350234375,1.2229216250000001,1.1420320234374999,1.204075625Q1.1875290234375,1.185230625,1.2358289234375,1.175622625Q1.2841283234375,1.166015625,1.3333740234375,1.166015625Z"
        fill-rule="evenodd" fill="currentColor" fill-opacity="0.800000011920929" />
    </g>
    <g>
      <path
        d="M1.3333740234375,13.833984375L14.6666740234375,13.833984375Q14.7159740234375,13.833984375,14.7642740234375,13.843591375Q14.8125740234375,13.853199374999999,14.8580740234375,13.872044375Q14.9035740234375,13.890890375,14.9444740234375,13.918249375Q14.9854740234375,13.945609375,15.0202740234375,13.980431375Q15.0550740234375,14.015253375,15.0824740234375,14.056199375Q15.1097740234375,14.097145375,15.1286740234375,14.142642375Q15.1474740234375,14.188139375,15.1570740234375,14.236439275Q15.1666740234375,14.284738675,15.1666740234375,14.333984375Q15.1666740234375,14.383230075,15.1570740234375,14.431529475Q15.1474740234375,14.479829375,15.1286740234375,14.525326375Q15.1097740234375,14.570823375,15.0824740234375,14.611769375Q15.0550740234375,14.652715375,15.0202740234375,14.687537375Q14.9854740234375,14.722359375,14.9444740234375,14.749719375Q14.9035740234375,14.777078375,14.8580740234375,14.795924375Q14.8125740234375,14.814769375000001,14.7642740234375,14.824377375Q14.7159740234375,14.833984375,14.6666740234375,14.833984375L1.3333740234375,14.833984375Q1.2841283234375,14.833984375,1.2358289234375,14.824377375Q1.1875290234375,14.814769375000001,1.1420320234374999,14.795924375Q1.0965350234375,14.777078375,1.0555890234375,14.749719375Q1.0146430234375,14.722359375,0.9798210234375,14.687537375Q0.9449990234375,14.652715375,0.9176390234375,14.611769375Q0.8902800234375,14.570823375,0.8714340234375,14.525326375Q0.8525890234375,14.479829375,0.8429810234374999,14.431529475Q0.8333740234375,14.383230075,0.8333740234375,14.333984375Q0.8333740234375,14.284738675,0.8429810234374999,14.236439275Q0.8525890234375,14.188139375,0.8714340234375,14.142642375Q0.8902800234375,14.097145375,0.9176390234375,14.056199375Q0.9449990234375,14.015253375,0.9798210234375,13.980431375Q1.0146430234375,13.945609375,1.0555890234375,13.918249375Q1.0965350234375,13.890890375,1.1420320234374999,13.872044375Q1.1875290234375,13.853199374999999,1.2358289234375,13.843591375Q1.2841283234375,13.833984375,1.3333740234375,13.833984375Z"
        fill-rule="evenodd" fill="currentColor" fill-opacity="0.800000011920929" />
    </g>
    <g>
      <path
        d="M2.1666239765625,12.30077925L2.1666259765625,12.80078125L2.1666259765625,13.53359425L2.1666239765625,14.03359125L3.1666279765625,14.03359125L3.1666259765625,13.53359325L3.1666259765625,12.80078125L3.1666279765625,12.30077925L2.1666239765625,12.30077925Z"
        fill-rule="evenodd" fill="currentColor" fill-opacity="0.800000011920929" />
    </g>
    <g>
      <path
        d="M7.499998,9.89452925L7.5,10.39453125L7.5,14.07453125L7.499998,14.57453125L8.500002,14.57453125L8.5,14.07453125L8.5,10.39453125L8.500002,9.89452925L7.499998,9.89452925Z"
        fill-rule="evenodd" fill="currentColor" fill-opacity="0.800000011920929" />
    </g>
    <g>
      <path
        d="M0.8333740234375,12.000654375L0.8333740234375,9.333984375Q0.8333740234375,9.284738675,0.8429810234374999,9.236439275Q0.8525890234375,9.188139375,0.8714340234375,9.142642375Q0.8902800234375,9.097145375,0.9176390234375,9.056199375Q0.9449990234375,9.015253375,0.9798210234375,8.980431375Q1.0146430234375,8.945609375,1.0555890234375,8.918249375Q1.0965350234375,8.890890375,1.1420320234374999,8.872044375Q1.1875290234375,8.853199374999999,1.2358289234375,8.843591375Q1.2841283234375,8.833984375,1.3333740234375,8.833984375L4.0000440234375,8.833984375Q4.0492840234375,8.833984375,4.0975840234375,8.843591375Q4.1458840234375,8.853199374999999,4.1913840234375,8.872044375Q4.2368840234375,8.890890375,4.2778240234375,8.918249375Q4.3187740234375,8.945609375,4.3535940234375,8.980431375Q4.3884140234375,9.015253375,4.4157740234375,9.056199375Q4.4431340234375,9.097145375,4.4619840234375,9.142642375Q4.4808240234375,9.188139375,4.4904340234374995,9.236439275Q4.5000440234375,9.284738675,4.5000440234375,9.333984375L4.5000440234375,12.000654375Q4.5000440234375,12.049894375000001,4.4904340234374995,12.098194375Q4.4808240234375,12.146494375,4.4619840234375,12.191994375Q4.4431340234375,12.237494375,4.4157740234375,12.278434375Q4.3884140234375,12.319384375,4.3535940234375,12.354204375Q4.3187740234375,12.389024375,4.2778240234375,12.416384375Q4.2368840234375,12.443744375,4.1913840234375,12.462594375Q4.1458840234375,12.481434375,4.0975840234375,12.491044375Q4.0492840234375,12.500654375,4.0000440234375,12.500654375L1.3333740234375,12.500654375Q1.2841283234375,12.500654375,1.2358289234375,12.491044375Q1.1875290234375,12.481434375,1.1420320234374999,12.462594375Q1.0965350234375,12.443744375,1.0555890234375,12.416384375Q1.0146430234375,12.389024375,0.9798210234375,12.354204375Q0.9449990234375,12.319384375,0.9176390234375,12.278434375Q0.8902800234375,12.237494375,0.8714340234375,12.191994375Q0.8525890234375,12.146494375,0.8429810234374999,12.098194375Q0.8333740234375,12.049894375000001,0.8333740234375,12.000654375ZM3.5000440234375,9.833984375L1.8333740234375,9.833984375L1.8333740234375,11.500654375L3.5000440234375,11.500654375L3.5000440234375,9.833984375Z"
        fill-rule="evenodd" fill="currentColor" fill-opacity="0.800000011920929" />
    </g>
    <g>
      <path
        d="M6.1666259765625,9.332685625L6.1666259765625,6.666015625Q6.1666259765625,6.616769925,6.1762329765625,6.568470525Q6.1858409765625,6.520170625,6.2046859765625,6.474673625Q6.2235319765625,6.429176625,6.2508909765625,6.388230625Q6.2782509765625,6.347284625,6.3130729765625,6.312462625Q6.3478949765625,6.277640625,6.3888409765625,6.250280625Q6.4297869765625,6.222921625,6.4752839765625,6.204075625Q6.5207809765625,6.185230625,6.5690808765625,6.175622625Q6.6173802765625,6.166015625,6.6666259765625,6.166015625L9.3332959765625,6.166015625Q9.382535976562501,6.166015625,9.4308359765625,6.175622625Q9.4791359765625,6.185230625,9.5246359765625,6.204075625Q9.5701359765625,6.222921625,9.6110759765625,6.250280625Q9.6520259765625,6.277640625,9.6868459765625,6.312462625Q9.7216659765625,6.347284625,9.7490259765625,6.388230625Q9.7763859765625,6.429176625,9.7952359765625,6.474673625Q9.8140759765625,6.520170625,9.8236859765625,6.568470525Q9.8332959765625,6.616769925,9.8332959765625,6.666015625L9.8332959765625,9.332685625Q9.8332959765625,9.381925625000001,9.8236859765625,9.430225625Q9.8140759765625,9.478525625,9.7952359765625,9.524025625Q9.7763859765625,9.569525625,9.7490259765625,9.610465625Q9.7216659765625,9.651415625,9.6868459765625,9.686235625Q9.6520259765625,9.721055625,9.6110759765625,9.748415625Q9.5701359765625,9.775775625,9.5246359765625,9.794625625Q9.4791359765625,9.813465625,9.4308359765625,9.823075625Q9.382535976562501,9.832685625,9.3332959765625,9.832685625L6.6666259765625,9.832685625Q6.6173802765625,9.832685625,6.5690808765625,9.823075625Q6.5207809765625,9.813465625,6.4752839765625,9.794625625Q6.4297869765625,9.775775625,6.3888409765625,9.748415625Q6.3478949765625,9.721055625,6.3130729765625,9.686235625Q6.2782509765625,9.651415625,6.2508909765625,9.610465625Q6.2235319765625,9.569525625,6.2046859765625,9.524025625Q6.1858409765625,9.478525625,6.1762329765625,9.430225625Q6.1666259765625,9.381925625000001,6.1666259765625,9.332685625ZM8.8332959765625,7.166015625L7.1666259765625,7.166015625L7.1666259765625,8.832685625L8.8332959765625,8.832685625L8.8332959765625,7.166015625Z"
        fill-rule="evenodd" fill="currentColor" fill-opacity="0.800000011920929" />
    </g>
    <g>
      <path
        d="M11.5,6.66667L11.5,4Q11.5,3.9507543,11.509607,3.9024549Q11.519214999999999,3.854155,11.53806,3.808658Q11.556906,3.763161,11.584265,3.722215Q11.611625,3.681269,11.646447,3.646447Q11.681269,3.611625,11.722215,3.584265Q11.763161,3.556906,11.808658,3.5380599999999998Q11.854155,3.519215,11.9024549,3.509607Q11.9507543,3.5,12,3.5L14.66667,3.5Q14.715910000000001,3.5,14.76421,3.509607Q14.81251,3.519215,14.85801,3.5380599999999998Q14.90351,3.556906,14.94445,3.584265Q14.9854,3.611625,15.02022,3.646447Q15.05504,3.681269,15.0824,3.722215Q15.10976,3.763161,15.12861,3.808658Q15.14745,3.854155,15.15706,3.9024549Q15.16667,3.9507543,15.16667,4L15.16667,6.66667Q15.16667,6.71591,15.15706,6.76421Q15.14745,6.81251,15.12861,6.85801Q15.10976,6.90351,15.0824,6.94445Q15.05504,6.9854,15.02022,7.02022Q14.9854,7.05504,14.94445,7.0824Q14.90351,7.10976,14.85801,7.12861Q14.81251,7.14745,14.76421,7.1570599999999995Q14.715910000000001,7.16667,14.66667,7.16667L12,7.16667Q11.9507543,7.16667,11.9024549,7.1570599999999995Q11.854155,7.14745,11.808658,7.12861Q11.763161,7.10976,11.722215,7.0824Q11.681269,7.05504,11.646447,7.02022Q11.611625,6.9854,11.584265,6.94445Q11.556906,6.90351,11.53806,6.85801Q11.519214999999999,6.81251,11.509607,6.76421Q11.5,6.71591,11.5,6.66667ZM14.16667,4.5L12.5,4.5L12.5,6.16667L14.16667,6.16667L14.16667,4.5Z"
        fill-rule="evenodd" fill="currentColor" fill-opacity="0.800000011920929" />
    </g>
    <g>
      <path
        d="M12.8333720234375,6.96484175L12.8333740234375,7.46484375L12.8333740234375,13.53203375L12.8333720234375,14.03203375L13.8333760234375,14.03203375L13.8333740234375,13.53203375L13.8333740234375,7.46484375L13.8333760234375,6.96484175L12.8333720234375,6.96484175Z"
        fill-rule="evenodd" fill="currentColor" fill-opacity="0.800000011920929" />
    </g>
    <g>
      <path
        d="M3.1666259765625,4L3.1666259765625,4.333333Q3.1666259765625,4.382579,3.1570189765625,4.430879Q3.1474109765625,4.479178,3.1285659765625002,4.524675Q3.1097199765625,4.570172,3.0823609765625,4.611118Q3.0550009765625,4.652065,3.0201789765625,4.6868870000000005Q2.9853569765625,4.721709,2.9444109765625,4.749068Q2.9034649765625,4.776428,2.8579679765625,4.795273Q2.8124709765625,4.814119,2.7641710765625,4.823726Q2.7158716765625,4.833333,2.6666259765625,4.833333Q2.6173802765625,4.833333,2.5690808765625,4.823726Q2.5207809765625,4.814119,2.4752839765625,4.795273Q2.4297869765625,4.776428,2.3888409765625,4.749068Q2.3478949765625,4.721709,2.3130729765625,4.6868870000000005Q2.2782509765625,4.652065,2.2508909765625,4.611118Q2.2235319765625,4.570172,2.2046859765624998,4.524675Q2.1858409765625,4.479178,2.1762329765625,4.430878Q2.1666259765625,4.382579,2.1666259765625,4.333333L2.1666259765625,4Q2.1666259765625,3.9507543,2.1762329765625,3.9024549Q2.1858409765625,3.854155,2.2046859765624998,3.808658Q2.2235319765625,3.763161,2.2508909765625,3.722215Q2.2782509765625,3.681269,2.3130729765625,3.646447Q2.3478949765625,3.611625,2.3888409765625,3.584265Q2.4297869765625,3.556906,2.4752839765625,3.5380599999999998Q2.5207809765625,3.519215,2.5690808765625,3.509607Q2.6173802765625,3.5,2.6666259765625,3.5Q2.7158716765625,3.5,2.7641710765625,3.509607Q2.8124709765625,3.519215,2.8579679765625,3.5380599999999998Q2.9034649765625,3.556906,2.9444109765625,3.584265Q2.9853569765625,3.611625,3.0201789765625,3.646447Q3.0550009765625,3.681269,3.0823609765625,3.722215Q3.1097199765625,3.763161,3.1285659765625002,3.808658Q3.1474109765625,3.854155,3.1570189765625,3.9024549Q3.1666259765625,3.9507543,3.1666259765625,4Z"
        fill-rule="evenodd" fill="currentColor" fill-opacity="0.800000011920929" />
    </g>
    <g>
      <path
        d="M3.1666259765625,6.666015625L3.1666259765625,6.999348625Q3.1666259765625,7.048594625,3.1570189765625,7.096894625Q3.1474109765625,7.145193625,3.1285659765625002,7.190690625Q3.1097199765625,7.236187625,3.0823609765625,7.277133625Q3.0550009765625,7.318080625,3.0201789765625,7.3529026250000005Q2.9853569765625,7.387724625,2.9444109765625,7.415083625Q2.9034649765625,7.442443625,2.8579679765625,7.461288625Q2.8124709765625,7.480134625,2.7641710765625,7.489741625Q2.7158716765625,7.499348625,2.6666259765625,7.499348625Q2.6173802765625,7.499348625,2.5690808765625,7.489741625Q2.5207809765625,7.480134625,2.4752839765625,7.461288625Q2.4297869765625,7.442443625,2.3888409765625,7.415083625Q2.3478949765625,7.387724625,2.3130729765625,7.3529026250000005Q2.2782509765625,7.318080625,2.2508909765625,7.277133625Q2.2235319765625,7.236187625,2.2046859765624998,7.190690625Q2.1858409765625,7.145193625,2.1762329765625,7.096893625Q2.1666259765625,7.048594625,2.1666259765625,6.999348625L2.1666259765625,6.666015625Q2.1666259765625,6.616769925,2.1762329765625,6.568470525Q2.1858409765625,6.520170625,2.2046859765624998,6.474673625Q2.2235319765625,6.429176625,2.2508909765625,6.388230625Q2.2782509765625,6.347284625,2.3130729765625,6.312462625Q2.3478949765625,6.277640625,2.3888409765625,6.250280625Q2.4297869765625,6.222921625,2.4752839765625,6.204075625Q2.5207809765625,6.185230625,2.5690808765625,6.175622625Q2.6173802765625,6.166015625,2.6666259765625,6.166015625Q2.7158716765625,6.166015625,2.7641710765625,6.175622625Q2.8124709765625,6.185230625,2.8579679765625,6.204075625Q2.9034649765625,6.222921625,2.9444109765625,6.250280625Q2.9853569765625,6.277640625,3.0201789765625,6.312462625Q3.0550009765625,6.347284625,3.0823609765625,6.388230625Q3.1097199765625,6.429176625,3.1285659765625002,6.474673625Q3.1474109765625,6.520170625,3.1570189765625,6.568470525Q3.1666259765625,6.616769925,3.1666259765625,6.666015625Z"
        fill-rule="evenodd" fill="currentColor" fill-opacity="0.800000011920929" />
    </g>
    <g>
      <path
        d="M8.1666259765625,4L8.1666259765625,4.333333Q8.1666259765625,4.382579,8.1570189765625,4.430879Q8.147410976562501,4.479178,8.1285659765625,4.524675Q8.1097199765625,4.570172,8.0823609765625,4.611118Q8.0550009765625,4.652065,8.0201789765625,4.6868870000000005Q7.9853569765625,4.721709,7.9444109765625,4.749068Q7.9034649765625,4.776428,7.8579679765625,4.795273Q7.8124709765625,4.814119,7.7641710765625,4.823726Q7.7158716765625,4.833333,7.6666259765625,4.833333Q7.6173802765625,4.833333,7.5690808765625,4.823726Q7.5207809765625,4.814119,7.4752839765625,4.795273Q7.4297869765625,4.776428,7.3888409765625,4.749068Q7.3478949765625,4.721709,7.3130729765625,4.6868870000000005Q7.2782509765625,4.652065,7.2508909765625,4.611118Q7.2235319765625,4.570172,7.2046859765625,4.524675Q7.1858409765625,4.479178,7.1762329765625,4.430878Q7.1666259765625,4.382579,7.1666259765625,4.333333L7.1666259765625,4Q7.1666259765625,3.9507543,7.1762329765625,3.9024549Q7.1858409765625,3.854155,7.2046859765625,3.808658Q7.2235319765625,3.763161,7.2508909765625,3.722215Q7.2782509765625,3.681269,7.3130729765625,3.646447Q7.3478949765625,3.611625,7.3888409765625,3.584265Q7.4297869765625,3.556906,7.4752839765625,3.5380599999999998Q7.5207809765625,3.519215,7.5690808765625,3.509607Q7.6173802765625,3.5,7.6666259765625,3.5Q7.7158716765625,3.5,7.7641710765625,3.509607Q7.8124709765625,3.519215,7.8579679765625,3.5380599999999998Q7.9034649765625,3.556906,7.9444109765625,3.584265Q7.9853569765625,3.611625,8.0201789765625,3.646447Q8.0550009765625,3.681269,8.0823609765625,3.722215Q8.1097199765625,3.763161,8.1285659765625,3.808658Q8.147410976562501,3.854155,8.1570189765625,3.9024549Q8.1666259765625,3.9507543,8.1666259765625,4Z"
        fill-rule="evenodd" fill="currentColor" fill-opacity="0.800000011920929" />
    </g>
  </g>
</svg>