<svg xmlns="http://www.w3.org/2000/svg" xmlns:xlink="http://www.w3.org/1999/xlink" fill="none" version="1.1" width="16"
  height="16" viewBox="0 0 16 16">
  <defs>
    <clipPath id="master_svg0_934_075180">
      <rect x="0" y="0" width="16" height="16" rx="0" />
    </clipPath>
  </defs>
  <g clip-path="url(#master_svg0_934_075180)">
    <g>
      <rect x="0" y="0" width="16" height="16" rx="0" fill="currentColor" fill-opacity="0.009999999776482582"
        style="mix-blend-mode:passthrough" />
    </g>
    <g>
      <path
        d="M5.993597594,4.490284375L12.131930624999999,4.496954375Q12.266200625,4.497094375,12.382470625,4.429964375Q12.468610625,4.380234375000001,12.529150625,4.301334375Q12.589690625,4.222424375,12.615440625,4.126364375Q12.641180625,4.030294375,12.628200625,3.931684375Q12.615210625,3.833084375,12.565490624999999,3.746954375L11.028020625,1.083984375Q11.003400625000001,1.041336375,10.970930625000001,1.004311375Q10.938460625000001,0.967286375,10.899390624999999,0.937307375Q10.860320625,0.907329375,10.816150624999999,0.8855483749999999Q10.771990625,0.863767375,10.724420625,0.851021375Q10.676850625,0.838275375,10.627710624999999,0.835055375Q10.578570625000001,0.831834375,10.529750625,0.838261375Q10.480920625,0.844689375,10.434290625,0.860519375Q10.387660624999999,0.8763483750000001,10.345010625,0.900971375L5.744141625,3.557274375Q5.687193625,3.590154375,5.640683625,3.636634375Q5.594173625,3.683124375,5.561263625,3.740044375Q5.528354625,3.796974375,5.511283625,3.860484375Q5.494212625,3.923984375,5.494140625,3.989744375Q5.494087625,4.038984375,5.503642625,4.087294375Q5.513197625,4.135604375,5.531993625,4.181124375Q5.550789625,4.226644374999999,5.578104625,4.267614375Q5.605419625,4.308594375,5.640203625,4.343454375Q5.674987625,4.378314375,5.715904625,4.4057143750000005Q5.756820625,4.433124375,5.802297625,4.452014375Q5.847773625,4.4709143749999996,5.896062925,4.480574375Q5.944351925,4.490234375,5.993597594,4.490284375ZM11.265900625,3.496014375L7.856670625,3.492304375L10.411990625,2.0169963749999997L11.265900625,3.496014375Z"
        fill-rule="evenodd" fill="currentColor" fill-opacity="0.800000011920929" />
    </g>
    <g>
      <path
        d="M0.83349609375,4.666667L0.83349609375,14Q0.83349609375,14.4833,1.17520609375,14.825Q1.51691309375,15.1667,2.00016309375,15.1667L14.00019609375,15.1667Q14.48339609375,15.1667,14.82509609375,14.825Q15.16679609375,14.4833,15.16679609375,14L15.16679609375,4.666667Q15.16679609375,4.18341,14.82509609375,3.841705Q14.48339609375,3.5,14.00019609375,3.5L2.00016309375,3.5Q1.51691309375,3.5,1.17520709375,3.841703Q0.83349609375,4.18341,0.83349609375,4.666667ZM1.8823100937500001,14.1179Q1.83349609375,14.069,1.83349609375,14L1.83349609375,4.666667Q1.83349609375,4.597627,1.8823100937500001,4.548814Q1.93112409375,4.5,2.00016309375,4.5L14.00019609375,4.5Q14.16679609375,4.5,14.16679609375,4.666667L14.16679609375,14Q14.16679609375,14.1667,14.00019609375,14.1667L2.00016309375,14.1667Q1.93112409375,14.1667,1.8823100937500001,14.1179Z"
        fill-rule="evenodd" fill="currentColor" fill-opacity="0.800000011920929" />
    </g>
    <g>
      <path
        d="M10.167734,7.792105625Q9.5,8.428045625,9.5,9.332685625Q9.5,10.237315625,10.167734,10.873255625Q10.825126000000001,11.499345625,11.75,11.499345625L14.66667,11.499345625Q14.715910000000001,11.499345625,14.76421,11.489745625Q14.81251,11.480135624999999,14.85801,11.461285625Q14.90351,11.442445625,14.94445,11.415085625Q14.9854,11.387725625,15.02022,11.352905625Q15.05504,11.318075625,15.0824,11.277135625Q15.10976,11.236185625000001,15.12861,11.190685625Q15.14745,11.145195625,15.157060000000001,11.096895625Q15.16667,11.048595625,15.16667,10.999345625L15.16667,7.666015625Q15.16667,7.616769925,15.157060000000001,7.568470525Q15.14745,7.520170625,15.12861,7.474673625Q15.10976,7.429176625,15.0824,7.388230625Q15.05504,7.347284625,15.02022,7.312462625Q14.9854,7.277640625,14.94445,7.250280625Q14.90351,7.222921625,14.85801,7.204075625Q14.81251,7.185230625,14.76421,7.175622625Q14.715910000000001,7.166015625,14.66667,7.166015625L11.75,7.166015625Q10.825126000000001,7.166015625,10.167734,7.792105625ZM10.857391,10.149125625Q10.5,9.808745625,10.5,9.332685625Q10.5,8.856615625,10.857391,8.516242625Q11.22513,8.166015625,11.75,8.166015625L14.16667,8.166015625L14.16667,10.499345625L11.75,10.499345625Q11.22513,10.499345625,10.857391,10.149125625Z"
        fill-rule="evenodd" fill="currentColor" fill-opacity="0.800000011920929" />
    </g>
    <g>
      <path
        d="M14.16650390625,5.5Q14.16650390625,5.4507543,14.17611090625,5.4024549Q14.185718906249999,5.354155,14.20456390625,5.308658Q14.22340990625,5.263161,14.25076890625,5.222215Q14.27812890625,5.181269,14.31295090625,5.146447Q14.34777290625,5.111625,14.38871890625,5.084265Q14.42966490625,5.056906,14.47516190625,5.03806Q14.52065890625,5.019215,14.56895880625,5.009607Q14.61725820625,5,14.66650390625,5Q14.71574960625,5,14.76404900625,5.009607Q14.81234890625,5.019215,14.85784590625,5.03806Q14.90334290625,5.056906,14.94428890625,5.084265Q14.98523490625,5.111625,15.02005690625,5.146447Q15.05487890625,5.181269,15.08223890625,5.222215Q15.10959790625,5.263161,15.12844390625,5.308658Q15.147288906250001,5.354155,15.15689690625,5.4024549Q15.16650390625,5.4507543,15.16650390625,5.5L15.16650390625,13.5Q15.16650390625,13.54924,15.15689690625,13.59754Q15.147288906250001,13.64584,15.12844390625,13.69134Q15.10959790625,13.73684,15.08223890625,13.77778Q15.05487890625,13.81873,15.02005690625,13.85355Q14.98523490625,13.88837,14.94428890625,13.91573Q14.90334290625,13.94309,14.85784590625,13.96194Q14.81234890625,13.98078,14.76404900625,13.99039Q14.71574960625,14,14.66650390625,14Q14.61725820625,14,14.56895880625,13.99039Q14.52065890625,13.98078,14.47516190625,13.96194Q14.42966490625,13.94309,14.38871890625,13.91573Q14.34777290625,13.88837,14.31295090625,13.85355Q14.27812890625,13.81873,14.25076890625,13.77778Q14.22340990625,13.73684,14.20456390625,13.69134Q14.185718906249999,13.64584,14.17611090625,13.59754Q14.16650390625,13.54924,14.16650390625,13.5L14.16650390625,5.5Z"
        fill-rule="evenodd" fill="currentColor" fill-opacity="0.800000011920929" />
    </g>
  </g>
</svg>